<svg aria-hidden="true" style="position: absolute; width: 0; height: 0; overflow: hidden;" version="1.1" xmlns="http://www.w3.org/2000/svg" xmlns:xlink="http://www.w3.org/1999/xlink">
<defs>
<symbol id="icon-free-support" viewBox="0 0 32 32">
<path stroke-linejoin="round" stroke-linecap="round" stroke-miterlimit="4" stroke-width="1.1111" d="M20.6 5.162c0 2.56-2.075 4.635-4.635 4.635s-4.636-2.075-4.636-4.635c0-2.56 2.076-4.635 4.636-4.635s4.635 2.075 4.635 4.635z"></path>
<path stroke-linejoin="round" stroke-linecap="round" stroke-miterlimit="4" stroke-width="1.1111" d="M0.527 31.177h30.877"></path>
<path stroke-linejoin="round" stroke-linecap="round" stroke-miterlimit="4" stroke-width="1.1111" d="M23.436 28.37v-5.836c0-0.853-0.692-1.544-1.544-1.544h-11.854c-0.853 0-1.543 0.691-1.543 1.544v5.836"></path>
<path stroke-linejoin="round" stroke-linecap="round" stroke-miterlimit="4" stroke-width="1.1111" d="M27.664 28.338c0.851-0.983 1.085-2.357 0.607-3.566l-2.707-6.849c-0.932-2.356-3.208-3.904-5.743-3.904h-7.712c-2.535 0-4.812 1.548-5.743 3.904l-2.708 6.849c-0.478 1.209-0.243 2.583 0.608 3.566"></path>
</symbol>
<symbol id="icon-free-shipping" viewBox="0 0 32 32">
<path fill="none" stroke="#231f20" style="stroke: var(--color1, #231f20)" stroke-linejoin="round" stroke-linecap="round" stroke-miterlimit="4" stroke-width="1.1111" d="M1.228 22.308v-21.538h22.274c0.625 0 1.176 0.589 1.352 1.446l1.797 10.794 3.326 1.734c0.447 0.354 0.725 1.028 0.725 1.758v5.806"></path>
<path fill="none" stroke="#231f20" style="stroke: var(--color1, #231f20)" stroke-linejoin="round" stroke-linecap="round" stroke-miterlimit="4" stroke-width="1.1111" d="M15.965 22.308v-17.435"></path>
<path fill="none" stroke="#231f20" style="stroke: var(--color1, #231f20)" stroke-linejoin="round" stroke-linecap="round" stroke-miterlimit="4" stroke-width="1.1111" d="M27.594 26.41h3.809"></path>
<path fill="none" stroke="#231f20" style="stroke: var(--color1, #231f20)" stroke-linejoin="round" stroke-linecap="round" stroke-miterlimit="4" stroke-width="1.1111" d="M11.352 26.41h9.226"></path>
<path fill="none" stroke="#231f20" style="stroke: var(--color1, #231f20)" stroke-linejoin="round" stroke-linecap="round" stroke-miterlimit="4" stroke-width="1.1111" d="M0.526 26.41h3.808"></path>
<path fill="none" stroke="#231f20" style="stroke: var(--color1, #231f20)" stroke-linejoin="round" stroke-linecap="round" stroke-miterlimit="4" stroke-width="1.1111" d="M11.353 26.41c0 2.832-1.571 5.128-3.508 5.128s-3.509-2.295-3.509-5.128c0-2.832 1.572-5.128 3.509-5.128s3.508 2.295 3.508 5.128z"></path>
<path d="M9.16 26.41c0 1.061-0.589 1.923-1.316 1.923s-1.316-0.862-1.316-1.923c0-1.061 0.589-1.923 1.316-1.923s1.316 0.861 1.316 1.923z"></path>
<path fill="none" stroke="#231f20" style="stroke: var(--color1, #231f20)" stroke-linejoin="round" stroke-linecap="round" stroke-miterlimit="4" stroke-width="1.1111" d="M27.595 26.41c0 2.832-1.571 5.128-3.508 5.128-1.938 0-3.509-2.295-3.509-5.128s1.572-5.128 3.509-5.128c1.937 0 3.508 2.295 3.508 5.128z"></path>
<path d="M25.402 26.41c0 1.061-0.59 1.923-1.316 1.923s-1.316-0.862-1.316-1.923c0-1.061 0.589-1.923 1.316-1.923s1.316 0.861 1.316 1.923z"></path>
<path fill="none" stroke="#231f20" style="stroke: var(--color1, #231f20)" stroke-linejoin="round" stroke-linecap="round" stroke-miterlimit="4" stroke-width="1.1111" d="M26.651 13.008h-6.812v-8.138h5.457"></path>
</symbol>
<symbol id="icon-warranty" viewBox="0 0 32 32">
<path stroke-linejoin="round" stroke-linecap="round" stroke-miterlimit="4" stroke-width="1.1111" d="M4.035 3.68h-1.78c-0.955 0-1.728 0.887-1.728 1.981v0.003c0 3.949 1.687 7.591 4.309 9.968"></path>
<path stroke-linejoin="round" stroke-linecap="round" stroke-miterlimit="4" stroke-width="1.1111" d="M27.895 3.68h1.781c0.954 0 1.727 0.887 1.727 1.981v0.003c0 3.949-1.687 7.591-4.309 9.968"></path>
<path stroke-linejoin="round" stroke-linecap="round" stroke-miterlimit="4" stroke-width="1.1111" d="M8.26 30.185h15.411"></path>
<path stroke-linejoin="round" stroke-linecap="round" stroke-miterlimit="4" stroke-width="1.1111" d="M15.965 21.297v8.889"></path>
</symbol>
<symbol id="icon-guarantee" viewBox="0 0 32 32">
<path stroke-linejoin="round" stroke-linecap="round" stroke-miterlimit="4" stroke-width="1.1111" d="M28.805 11.703c0 6.173-5.941 11.177-13.273 11.177-7.329 0-13.271-5.004-13.271-11.177s5.942-11.177 13.271-11.177c7.331 0 13.273 5.004 13.273 11.177z"></path>
<path stroke-linejoin="round" stroke-linecap="round" stroke-miterlimit="4" stroke-width="1.1111" d="M12.199 25.807l-3.382 5.597-2.026-5.157-6.166 1.694 3.381-5.595"></path>
<path stroke-linejoin="round" stroke-linecap="round" stroke-miterlimit="4" stroke-width="1.1111" d="M18.866 25.807l3.383 5.597 2.026-5.157 6.166 1.694-3.381-5.595"></path>
</symbol>
</defs>
</svg>
